# xmcd CD database file
#
# Track frame offsets:
#	150
#	20528
#	39834
#	64900
#	71335
#	89995
#	111976
#	129245
#
# Disc length: 2058 seconds
#
# Revision: 0
# Processed by: cddbd v1.5.1PL2 Copyright (c) Steve Scherf et al.
# Submitted via: CDex 1.51
#
DISCID=6b080808
DTITLE=K-106 - DAYS OF WONDER
DYEAR=2005
DGENRE=Funk
TTITLE0=BORN TO BE FUNKY
TTITLE1=FUNKY FREEDOM
TTITLE2=ACROSS THE WIND
TTITLE3=〜INTERLUDE〜
TTITLE4=PARADISE ALLEY
TTITLE5=GRAVITY
TTITLE6=O-RA-MU-DA
TTITLE7=BEAUTIFUL DAYS
EXTD=YEAR: 2005
EXTT0=
EXTT1=
EXTT2=
EXTT3=
EXTT4=
EXTT5=
EXTT6=
EXTT7=
PLAYORDER=
